<svg width="48" height="48" viewBox="0 0 48 48" fill="none" xmlns="http://www.w3.org/2000/svg">
<g clip-path="url(#clip0_2_1030)">
<path d="M24 31.3728L24.7744 29.9744C24.5374 29.8433 24.2709 29.7745 24 29.7745C23.7291 29.7745 23.4626 29.8433 23.2256 29.9744L24 31.3728ZM17.0784 35.2L15.4976 34.944C15.449 35.2406 15.485 35.5449 15.6014 35.8221C15.7178 36.0992 15.9099 36.3379 16.1557 36.5109C16.4015 36.6839 16.6911 36.7842 16.9912 36.8002C17.2914 36.8163 17.59 36.7474 17.8528 36.6016L17.0784 35.2ZM18.4 27.0944L19.9776 27.3504C20.0178 27.1037 19.9997 26.8511 19.9247 26.6127C19.8496 26.3743 19.7198 26.1568 19.5456 25.9776L18.4 27.0944ZM12.8 21.3568L12.56 19.7728C12.2687 19.8167 11.9952 19.9401 11.7696 20.1295C11.5439 20.319 11.375 20.567 11.2814 20.8463C11.1877 21.1256 11.173 21.4253 11.2388 21.7125C11.3046 21.9996 11.4484 22.263 11.6544 22.4736L12.8 21.3568ZM20.5376 20.1728L20.7808 21.7568C21.0405 21.717 21.2865 21.6139 21.4969 21.4565C21.7073 21.2991 21.8757 21.0923 21.9872 20.8544L20.5376 20.1728ZM24 12.8L25.4496 12.1216C25.3208 11.8458 25.116 11.6125 24.8592 11.4491C24.6024 11.2857 24.3044 11.1988 24 11.1988C23.6956 11.1988 23.3976 11.2857 23.1408 11.4491C22.884 11.6125 22.6792 11.8458 22.5504 12.1216L24 12.8ZM27.4624 20.1728L26.0128 20.8544C26.1243 21.0923 26.2927 21.2991 26.5031 21.4565C26.7135 21.6139 26.9595 21.717 27.2192 21.7568L27.4624 20.1728ZM35.2 21.3568L36.3456 22.4736C36.5516 22.263 36.6954 21.9996 36.7612 21.7125C36.827 21.4253 36.8123 21.1256 36.7186 20.8463C36.625 20.567 36.4561 20.319 36.2304 20.1295C36.0048 19.9401 35.7313 19.8167 35.44 19.7728L35.2 21.3568ZM29.6 27.0944L28.4544 25.9776C28.2797 26.1571 28.1496 26.3752 28.0746 26.6142C27.9995 26.8532 27.9817 27.1064 28.0224 27.3536L29.6 27.0944ZM30.9216 35.2L30.1472 36.6016C30.4103 36.7477 30.7093 36.8167 31.0098 36.8005C31.3103 36.7844 31.6001 36.6838 31.8461 36.5104C32.092 36.337 32.284 36.0977 32.4001 35.8201C32.5162 35.5424 32.5517 35.2377 32.5024 34.9408L30.9216 35.2ZM23.2256 29.9744L16.304 33.7984L17.8528 36.6016L24.7744 32.7744L23.2256 29.9744ZM18.656 35.456L19.9776 27.3536L16.8224 26.8384L15.4976 34.9408L18.656 35.456ZM19.5456 25.9776L13.9456 20.2368L11.6544 22.4736L17.2544 28.2112L19.5456 25.9776ZM13.04 22.9376L20.7808 21.7568L20.2976 18.592L12.56 19.7728L13.04 22.9376ZM21.9872 20.8544L25.4496 13.4784L22.5504 12.1216L19.0912 19.4944L21.9872 20.8544ZM22.5504 13.4784L26.016 20.8544L28.912 19.4944L25.4496 12.1216L22.5504 13.4784ZM27.2224 21.76L34.96 22.9408L35.44 19.7728L27.7024 18.5952L27.2224 21.76ZM34.0544 20.24L28.4544 25.9808L30.7456 28.2144L36.3456 22.4768L34.0544 20.24ZM28.0224 27.3536L29.344 35.4592L32.5024 34.9408L31.1776 26.8384L28.0224 27.3536ZM31.696 33.7984L24.7744 29.9744L23.2256 32.7744L30.1472 36.6016L31.696 33.7984ZM24 44.8C18.4835 44.8 13.1929 42.6086 9.29218 38.7078C5.39142 34.8071 3.2 29.5165 3.2 24H0C0 30.3652 2.52856 36.4697 7.02944 40.9706C11.5303 45.4714 17.6348 48 24 48V44.8ZM44.8 24C44.8 26.7315 44.262 29.4362 43.2167 31.9598C42.1714 34.4834 40.6393 36.7764 38.7078 38.7078C36.7764 40.6393 34.4834 42.1714 31.9598 43.2167C29.4362 44.262 26.7315 44.8 24 44.8V48C30.3652 48 36.4697 45.4714 40.9706 40.9706C45.4714 36.4697 48 30.3652 48 24H44.8ZM24 3.2C26.7315 3.2 29.4362 3.73801 31.9598 4.78331C34.4834 5.8286 36.7764 7.36072 38.7078 9.29218C40.6393 11.2236 42.1714 13.5166 43.2167 16.0402C44.262 18.5638 44.8 21.2685 44.8 24H48C48 17.6348 45.4714 11.5303 40.9706 7.02944C36.4697 2.52856 30.3652 0 24 0V3.2ZM24 0C17.6348 0 11.5303 2.52856 7.02944 7.02944C2.52856 11.5303 0 17.6348 0 24H3.2C3.2 18.4835 5.39142 13.1929 9.29218 9.29218C13.1929 5.39142 18.4835 3.2 24 3.2V0Z" fill="#55A039"/>
</g>
<defs>
<clipPath id="clip0_2_1030">
<rect width="48" height="48" fill="white"/>
</clipPath>
</defs>
</svg>
