<svg width="20" height="20" viewBox="0 0 20 20" fill="none" xmlns="http://www.w3.org/2000/svg">
<path fill-rule="evenodd" clip-rule="evenodd" d="M13.6933 6.27734C14.0202 6.60132 14.0226 7.12895 13.6986 7.45584L11.0086 10.17C10.6846 10.4969 10.157 10.4993 9.83007 10.1753C9.50318 9.8513 9.50082 9.32366 9.8248 8.99677L12.5148 6.28261C12.8388 5.95572 13.3664 5.95336 13.6933 6.27734ZM17.8617 6.27993C18.1872 6.60535 18.1872 7.13299 17.8618 7.45844L10.7918 14.5293C10.6355 14.6856 10.4236 14.7734 10.2025 14.7734C9.98152 14.7734 9.76955 14.6856 9.61326 14.5293L6.07743 10.9935C5.75199 10.668 5.75199 10.1404 6.07743 9.81497C6.40287 9.48953 6.93051 9.48953 7.25594 9.81497L10.2025 12.7615L16.6832 6.28C17.0086 5.95455 17.5363 5.95451 17.8617 6.27993ZM1.91076 9.81497C2.2362 9.48953 2.76384 9.48953 3.08928 9.81497L6.62511 13.3508C6.95055 13.6762 6.95055 14.2039 6.62511 14.5293C6.29967 14.8547 5.77204 14.8547 5.4466 14.5293L1.91076 10.9935C1.58533 10.668 1.58533 10.1404 1.91076 9.81497Z" fill="#EB622B"/>
</svg>
