<svg width="48" height="48" viewBox="0 0 48 48" fill="none" xmlns="http://www.w3.org/2000/svg">
<g clip-path="url(#clip0_2_74)">
<g filter="url(#filter0_d_2_74)">
<path d="M24 44.2497C23.6022 44.2497 23.2207 44.0917 22.9394 43.8104C22.6581 43.5291 22.5 43.1475 22.5 42.7497V10.9147L10.32 23.3017C10.1819 23.4422 10.0174 23.5542 9.83601 23.6311C9.65461 23.7081 9.45982 23.7485 9.26277 23.7502C9.06573 23.7519 8.87028 23.7147 8.6876 23.6409C8.50491 23.567 8.33856 23.4579 8.19805 23.3197C8.05753 23.1816 7.9456 23.0171 7.86865 22.8357C7.7917 22.6543 7.75124 22.4595 7.74957 22.2625C7.74619 21.8645 7.90104 21.4815 8.18005 21.1977L22.928 6.20072L22.948 6.18072C23.0905 6.04056 23.2596 5.93027 23.4453 5.85635C23.631 5.78244 23.8296 5.74637 24.0294 5.75029C24.2292 5.7542 24.4262 5.79801 24.6089 5.87914C24.7916 5.96027 24.9562 6.07708 25.093 6.22272L39.82 21.1977C39.9582 21.3382 40.0673 21.5045 40.1412 21.6871C40.2151 21.8697 40.2523 22.0651 40.2507 22.2621C40.249 22.4591 40.2086 22.6538 40.1317 22.8352C40.0549 23.0166 39.943 23.1811 39.8025 23.3192C39.6621 23.4574 39.4958 23.5665 39.3132 23.6404C39.1306 23.7143 38.9352 23.7515 38.7382 23.7499C38.5412 23.7482 38.3464 23.7078 38.165 23.6309C37.9837 23.554 37.8192 23.4422 37.681 23.3017L25.5 10.9147V42.7497C25.5 43.1475 25.342 43.5291 25.0607 43.8104C24.7794 44.0917 24.3979 44.2497 24 44.2497Z" fill="white"/>
</g>
</g>
<defs>
<filter id="filter0_d_2_74" x="3.74951" y="5.75" width="40.5012" height="46.4995" filterUnits="userSpaceOnUse" color-interpolation-filters="sRGB">
<feFlood flood-opacity="0" result="BackgroundImageFix"/>
<feColorMatrix in="SourceAlpha" type="matrix" values="0 0 0 0 0 0 0 0 0 0 0 0 0 0 0 0 0 0 127 0" result="hardAlpha"/>
<feOffset dy="4"/>
<feGaussianBlur stdDeviation="2"/>
<feComposite in2="hardAlpha" operator="out"/>
<feColorMatrix type="matrix" values="0 0 0 0 0 0 0 0 0 0 0 0 0 0 0 0 0 0 0.25 0"/>
<feBlend mode="normal" in2="BackgroundImageFix" result="effect1_dropShadow_2_74"/>
<feBlend mode="normal" in="SourceGraphic" in2="effect1_dropShadow_2_74" result="shape"/>
</filter>
<clipPath id="clip0_2_74">
<rect width="48" height="48" fill="white"/>
</clipPath>
</defs>
</svg>
